<svg id="Layer_1" xmlns="http://www.w3.org/2000/svg" viewBox="0 0 254.2 185.8">
  <style>
    .st0{fill:#cecbc5}.st1{fill:#43434c}.st2{fill:#030708}.st3{fill:#f38138}.st5{fill:#0a0d0e}.st47{fill:#737d83}.st61{fill:#d41d2b}.st62{fill:#1d1d1b}
  </style>
  <path class="st0" d="M159.1 136.1c0 .3-.1.4-.4.4-1.3 1-2.8 1.6-4.2 2.3-2.8 1.3-5.8 2-8.8 2.9-11.9 2.2-23.9 2.7-35.8.4-2-.5-3.9-.9-5.8-1.7-2.1-.7-4-1.7-5.9-2.7-2.3-1.4-4.6-3-6.5-4.9-.6-1.2-1.7-2.1-2.4-3.3-.7-1-1.1-2.1-1.7-3.1-.6-.4-.6-1.1-.8-1.7-1.2-3.1-1.8-6.3-1.8-9.6 0-4.7-.2-9.4 0-14.1.2-5.3.4-10.6 1.5-15.7.4-1.9 1.1-3.7 2.2-5.3 1.8-2.7 2.5-6 3.8-8.9 2-4.2 3.8-8.5 5.2-13 .3-.9.5-1.9 1.4-2.5 1.8-.2 3.6-1 5.4-.6.5.9-.1 1.5-.5 2.2-5 10.1-9.5 20.8-12.5 32.1-2.4 8.8-3.6 17.8-2.5 27 .6 5.3 3.4 9.1 7.5 12.1 4.6 3.4 9.9 5 15.4 6 9.5 1.6 19 2 28.3-1 9.9-3.1 16.6-9.7 20.3-19.3 4.1-10.5 3.9-21.1.3-31.7-3.2-9.5-7.5-18.5-12.9-27-.3-.5-.7-1-.7-1.6.5-.5 1.1-.3 1.6 0 1.6.8 3.4 1.1 5.2 1.7 1 .5 1.5 1.5 2 2.4 1.7 3.1 3.5 6.1 5 9.3.8 2.7 1.3 5.5 2.3 8.2.6 1.6 1.3 3.2 2.2 4.6 2.3 3.5 2.6 7.6 3 11.6.8 7.7.4 15.3.4 23 0 2.2-.6 4.3-.6 6.5-.2.8-.4 1.6-.4 2.5-.3.8-.6 1.7-.8 2.5-.4.9-.7 1.7-1.2 2.6-.6 1.1-1.2 2.1-2 3-1.4 1.5-2.6 3.5-4.8 4.4z"/>
  <path class="st1" d="M75.8 128.1c-.8 1.7-2.3 2.8-3.6 4-1.9-.7-1.3-2.4-1.3-3.8.9-2.1.8-4.3 1.1-6.4 2.2-14.4 4.6-28.7 8.5-42.7 1.7-5.9 3.4-11.9 6.7-17.2.7-1.1 1.5-2.2 2.6-3 2.7-1.9 4.4-1.2 4.8 2.2-1 2.9-1.2 5.9-2 8.9-.9 3.5-1.9 6.9-4 9.9-2 3-2.3 6.4-2.7 9.8-.8 7-1 14.1-.8 21.2.1 2.5-.3 4.9-2 6.8-1.9 2.9-3.8 5.8-6.1 8.3-.3.9-1.2 1.1-1.2 2zM173.7 122.1c-.6-.1-.7-.6-.7-1.1-.3-1-1.1-1.8-1.6-2.7-1.8-2.5-2.4-5.2-2.3-8.2.2-6.2.3-12.5-.4-18.7-.5-4.5-1.2-8.8-3.7-12.8-2.6-4.2-3.4-9.1-4.2-14-.2-1.2-.4-2.5-.7-3.7.9-1.5 2.1-1.7 3.3-.5.8.8 1.1 1.9 1.5 3 3.6 9.6 6.4 19.5 9.1 29.4 3.1 11 6 22.1 8.3 33.4.3 1.4.4 2.9.8 4.3.1.5.2 1-.4 1.2-.4.2-.7-.1-1-.4-.8-.9-1.6-1.8-2.8-2.3-1.3-1.5-2.8-2.7-3.6-4.6-.4-.9-.7-1.8-1.6-2.3z"/>
  <path class="st2" d="M149.5 7.5c3.4 3.5 5.5 7.7 6.8 12.3.2.4.2.7-.2 1-.4.2-.5-.7-1-.2-.5 2.1-1.7 3.7-3.9 4.1-.9-.1-1.7.2-2.5.6-1.5.1-2.7-.6-3.8-1.5-.7-.6-1.6-.9-2.3-1.4-2.4-2.3-4.2-5-5-8.2-.6-2.7-.5-5.3 1.6-7.4 2.3-1.7 4.7-1.8 7.2-.6 1 .6 2 1.1 3.1 1.3zM98 17.6c2.1-5.2 5.7-9.2 10-12.5.1.6.4.8.9.4 1.9-.3 3.7 0 5.2 1.3 2.5 3.1 2.2 6.6.7 9.9-1.8 4-4.8 7-8.6 9.3-.7.1-1.4-.2-2 .2-2.4.6-3.4.2-4.3-1.6 1.2-.8 2.1.6 3.1.3-.9 0-1.7-.4-2.5-.9-2-1.6-2.4-3.9-2.5-6.4z"/>
  <path class="st3" d="M89.7 42.7c0-.3.1-.6.4-.7 0-1 .2-1.9.1-2.8 1.1-4.4 2.5-8.7 4.5-12.8.9-1.5 1-3.6 2.6-4.6 1.2.7.2 1.9.5 2.8.7 3.2 2.9 4.1 6 2.5.7-.4 1.3-1.3 2.3-.6.1 1-.6 1.6-1 2.3-2.3 3.7-4.6 7.4-6.2 11.5-1.5 3.9-2.5 7.9-1.5 12.2.1.5.2 1-.1 1.5-1.3.7-2.1-.1-3-.8-3-3-4.6-6.4-4.6-10.5z"/>
  <path d="M114 7.2c-1.6-1.3-3.5-1.7-5.6-1.3 0-1.4 1.3-1.7 2.2-2.2 1.8-.9 3.7-1.7 5.6-2.2 3.5-.7 7.1-1.3 10.7-1.2 3.3.1 6.5.5 9.7 1.2 2.5.8 5.1 1.4 7.5 2.6.7 1.1 2.4.8 2.9 2.2 0 .3-.1.6-.5.4-2.4-1.1-4.7-1.2-7 .4-2.8.5-5.6 0-8.3-.3-4.9-.5-9.8.1-14.6.6-.8 0-1.8.4-2.6-.2z" fill="#f38238"/>
  <path class="st5" d="M82.5 118.2c1.8-2.4 2.1-5.1 2-8.1-.2-8.3 0-16.6 1.5-24.9.3-1.7.7-3.4 1.7-4.8 3.3-4.8 4.3-10.4 5.5-16 .2-1.1-.2-2.6 1.2-3.3 1 .4.7 1.3.7 2-.3 2.6-1.1 5.1-1.9 7.6-1.3 3.8-2.7 7.4-4.7 10.9-2.1 3.7-2.1 8-2.4 12.2-.5 6.1-.3 12.3-.4 18.4-.1 4.2.4 8.3 1.2 12.3-1.4-1.2-1.2-3.1-1.8-4.7-.1-.2 0-.4-.1-.6-.2-.7.1-1.9-.6-2.1-1-.4-.8 1.2-1.6 1.4-.2.2-.4.1-.3-.3zM160.2 60.9c1.4.7.9 2.1 1.1 3.1 1 5.9 2.4 11.7 5.7 16.9 1.5 2.4 1.6 5.3 2 8 1.1 7.2.9 14.5.8 21.8 0 2.3.2 4.5 1.5 6.4.3.4.7.9.3 1.5h-.2c-1-.2-.7-2.2-1.9-1.8-.7.3-.1 1.7-.4 2.5-.4 1.1 0 2.2-.6 3.2-.9-.2-.4-.8-.4-1.3.6-9.5.8-19.1.1-28.6-.4-4.9-1-9.6-3.8-14-2.3-3.5-2.9-7.8-3.8-11.9-.4-1.2-.8-2.3-1.1-3.5-.2-.8-.5-1.8.7-2.3z"/>
  <path d="M154.2 55.7c-2.4-.1-4.5-1.2-6.7-2.2-.6-1-.1-1.3.8-1.2.9.1 1.6.5 2.4.8 2.2.8 4.5 1.2 6.8.2 3.4-1.6 4.9-4.6 6.1-7.9.9-2.6 1-5.1.2-7.7-.2-.7-.6-1.5-.4-2.3.1-.3.3-.5.7-.5 1.5 3.1 2 6.4 1.1 9.8-.2.7.1 1 .5 1.6 1.1 1.6 2.1 3.3 3.2 4.9.2.6 1.1 1.1.1 1.7-1.3-.6-1.5-2.1-2.4-3-.5-.5-.7-1.3-1.3-1.7-.7.2-.7.9-1 1.4-1.3 2.3-3 4.2-5.3 5.5-1.5.9-3.1 1.5-4.8.6z" fill="#141514"/>
  <path d="M178.9 128.9c.1-.7.4-.7.8-.2.8.8 1.6 1.7 2.4 2.5.5.5.8.4.7-.3-.4-1.8-.3-3.7-.1-5.5.5-3.9.6-7.8.6-11.7 0-7-.5-14-1.6-20.9-.1-.8-.3-1.7-.2-2.6.1-.6.1-1.3.9-1.4 2.1 9.6 2.4 19.4 2.2 29.2-.1 5.1-.5 10.2-1.1 15.5-2-1.4-3.2-3.1-4.6-4.6z" fill="#121617"/>
  <path d="M71.1 128.5c-.3 1.4.4 2.5 1.1 3.7-.3.4-.7.8-1.3 1.5-.7-4.5-.9-8.6-1.1-12.6-.5-10.4.3-20.7 1.7-31 0-.1.2-.2.3-.2 1.1.1.9 1.1 1 1.8-1.5 10.2-1.7 20.5-1.5 30.8 0 1.9.5 4-.2 6z" fill="#0d1112"/>
  <path d="M109.7 141.6c8.1 1.6 16.2 1.8 24.4 1.2 3.9-.3 7.7-1.3 11.7-1.2-1.7 1.4-3.9 1.4-5.9 1.5-9.1.8-18.3 1.2-27.4-.2-1.3-.2-2.5-.6-3.8-.9.1-.8.6-.5 1-.4z" fill="#222424"/>
  <path d="M89.7 42.7c.3 1 .6 2 .8 3 1 3.7 2.8 6.8 6.8 8.1 2.7.1 5.3.2 7.9-.9.6-.3 1.3-.1 1.4.6.1 1.1-.8 1.4-1.7 1.3-1.8.5-3.6.9-5.5.9-2.3.5-4-.8-5.7-2.1-2-1.6-3.3-3.7-4.3-6.1-.2-.5-.3-1 .1-1.5.3-1-.5-2.2.2-3.3z" fill="#131312"/>
  <path d="M97.3 24.6c-.3-.9.6-1.9-.1-2.8-.3-.2-.5-.5-.6-.8.5-1.1.9-2.2 1.4-3.3 1 2 .8 4.6 2.9 6.2.3.8-.6.4-.8.8 1.1 1.6 2.7 1.6 4.4 1.2.2.7.2.7-.1 1-2.5 1.8-5 1.2-6.6-1.5-.2-.4-.3-.6-.5-.8z" fill="#a1582e"/>
  <path d="M169 52.9c.5-.6-.3-1-.1-1.6 2.2 3.2 3.8 6.8 5.4 10.3 1.8 4 3.5 8 4.2 12.3.2.3.2.6 0 .9-.9.2-1-.6-1.1-1.1-2.2-6.8-4.9-13.3-8.3-19.6-.2-.4-.5-.8-.1-1.2z" fill="#2f3336"/>
  <path d="M137 2c-6.3-1.3-12.5-1.7-18.9-.5-.7.1-1.4.3-2.1.4-.3.2-.8.2-.8-.1-.1-.8.8-.3 1.1-.7 6.5-1.7 13-1.3 19.5-.3.7.1 1.4.4 2 .7.1.8-.4.6-.8.5z" fill="#2c2824"/>
  <path d="M76.5 72.4c-.3-1.9.9-3.4 1.5-5 1.4-3.7 2.7-7.5 4.9-10.9.2-.1.4-.1.5 0 .4.7.1 1.4-.2 2.1-2 4-3.6 8.2-5.2 12.4-.2.6-.4 1.1-1 1.5-.1 0-.3 0-.5-.1z" fill="#3c4142"/>
  <path d="M178.4 74.9c0-.3.1-.7.1-1 1.1.5 1 1.6 1.2 2.5 1 4.1 2.3 8.1 2.7 12.3-.4.3-.3.8-.4 1.2-.8-.1-.8-.8-.9-1.4-.7-3.9-1.6-7.8-2.7-11.6-.2-.6-.5-1.3 0-2z" fill="#272c2d"/>
  <path d="M76.5 72.4h.4c.5.4.3 1 .2 1.5-1 3.6-2.2 7.2-3 10.8-.1.5-.3 1-.8 1.3-.2.1-.4 0-.6-.1-.1-2.3.8-4.4 1.3-6.6.7-2.3 1-4.9 2.5-6.9z" fill="#2d3234"/>
  <path d="M94.8 26.2c.2.7-.1 1.3-.4 1.9-1.5 3.6-2.9 7.2-3.8 10.9-.4-.2-.3-.6-.4-.9.7-4.1 2.3-8 4.1-11.7 0-.1.3-.1.5-.2z" fill="#3a2f25"/>
  <path d="M82.5 118.2l.4.4c-1.4 3.2-3.8 5.7-6 8.3-.3-.2-.2-.6-.4-.8 2.3-2.5 4.1-5.2 6-7.9z" fill="#2c2e31"/>
  <path d="M116.4 1.2l-.9.6c.2.1.4.1.5.2-2 .8-4.1 1.4-6 2.5-.6.4-1.3.7-1.6 1.4-.1.1-.4.3-.4.2-.3-.3.1-.7 0-1 .1-.2.2-.6.4-.7 2.6-1.3 5-3 8-3.2z" fill="#4d392a"/>
  <path d="M145.8 141.7c.1-.5.4-.7.9-.8 2.7-.5 5.2-1.5 7.7-2.5.3-.1.5-.1.5.2 0 .5-.6.3-.8.7-2.6 1.2-5.3 2.3-8.3 2.4z" fill="#474847"/>
  <path d="M92.1 132.5c2 1.8 4.2 3.3 6.3 4.8 0 .3.2.6 0 .8-2.8-1.3-5.1-3.3-7.1-5.6.3-.3.6-.2.8 0z" fill="#535453"/>
  <path d="M164.1 35l-.5.5c-.5 0-.7-.3-.9-.7-.7-1.8-1.8-3.5-2.8-5.2-.3-.4-.5-.9-.3-1.5.3-.2.6-.1.8.1 1.9 2 3 4.3 3.7 6.8z" fill="#3f3730"/>
  <path d="M89.3 46.1c.1.4.3.8.4 1.2-.9 1.7-1.8 3.5-3.3 4.9-.4-.2-.8.1-1.1-.1 1.2-2.1 2.3-4.3 4-6z" fill="#3f4345"/>
  <path d="M137 2c.3-.1.7-.1.9-.5 2.3.3 4.5 1 6.4 2.5-2.6 0-4.9-1.4-7.3-2z" fill="#4e4237"/>
  <path d="M159.1 136.1c1.6-1.6 3.1-3.2 4.7-4.8.7 0 .6.4.3.8-1.3 1.8-2.5 3.7-5 4z" fill="#4e504f"/>
  <path d="M94.8 26.2c-.1-2 1.1-3.5 1.9-5.2.4.1.7.3.6.8-1 1.4-1.1 3.3-2.5 4.4z" fill="#231911"/>
  <path d="M109.7 141.6c-.4.1-.7.1-.9.5-1.8-.2-3.5-.8-5.2-1.6-.1-.5.1-.7.6-.5 1.8.5 3.7 1.1 5.5 1.6z" fill="#343633"/>
  <path d="M104.2 140c-.2.2-.4.3-.6.5-1.8-.5-3.6-1.3-5.2-2.4 0-.3-.5-.6 0-.8 2 .9 3.9 1.8 5.8 2.7z" fill="#383a38"/>
  <path d="M155.8 20.6c.1-.3.3-.6.4-.9.9 1.8.5 4 2 5.6.2.3.2.6 0 .9-1 .1-1.5-.6-1.7-1.3-.4-1.4-1.4-2.7-.7-4.3z" fill="#3f2c1e"/>
  <path d="M85.3 52.1c.3.1.6-.4.9.1-.3 1.9-.9 3.5-2.8 4.3H83c.4-1.6 1.5-3 2.3-4.4z" fill="#25292b"/>
  <path d="M72.7 85.9h.2c1.1 1.9.8 4.3-.6 5.6-.2-.6.2-1.3-.5-1.7.1-1.3.2-2.6.9-3.9z" fill="#3a3f41"/>
  <path d="M154.2 139.3c-.1-.4 1-.4.3-.9 1.4-.7 2.7-1.7 4.3-1.9-1.1 1.7-2.9 2.2-4.6 2.8z" fill="#4a4b49"/>
  <path d="M164.2 132.1c-.1-.3-.2-.5-.3-.8.6-.9 1.3-1.9 1.9-2.8.3 0 .6-.2.8 0-.4 1.5-1.4 2.6-2.4 3.6z" fill="#545655"/>
  <path d="M92.1 132.5h-.8c-.8-.8-1.5-1.6-2.1-2.6-.2-.5.1-.5.4-.5.9.9 2 1.8 2.5 3.1z" fill="#525452"/>
  <path d="M147.2 6.3c-1-.7-2.4-.9-2.9-2.2 1.6.3 2.9 1.1 4.1 2.2-.5.3-.8.3-1.2 0z" fill="#3f342c"/>
  <path d="M89.7 129.3c-.1.2-.3.4-.4.5-.9-1-1.6-2.1-1.6-3.5 1.1.7 1.5 1.9 2 3z" fill="#4a4a49"/>
  <path d="M147.2 6.3h1.2c.5.3.9.7 1.1 1.2-1.2.8-2-.1-2.8-.8.1-.1.3-.3.5-.4z" fill="#3e2c1e"/>
  <path d="M158.1 26.4c0-.4 0-.7.1-1.1 1.1.7 1.7 1.8 2.4 2.9h-.8c-1.3 0-1.4-.9-1.7-1.8z" fill="#504941"/>
  <path d="M90.1 38.2c.1.3.3.6.4.9-.1 1 0 2-.5 2.9-1-1.3-.1-2.6.1-3.8z" fill="#19130c"/>
  <path d="M76.6 126.1c.1.3.3.5.4.8l-1.2 1.2c-.2-.2-.9.5-.6-.3.2-.6.9-1.1 1.4-1.7z" fill="#191b1f"/>
  <path d="M166.5 128.5c-.3 0-.6.5-.8 0 .5-.8.5-1.7 1.3-2.3.2-.1.3 0 .3.2.1.7-.4 1.4-.8 2.1z" fill="#292929"/>
  <path d="M167.2 126.3c-.1-.1-.1-.2-.3-.2-.1-.9.3-1.7.7-2.6.3.1.4.3.4.5-.1.9-.1 1.7-.8 2.3z" fill="#1b1d1c"/>
  <path d="M171.3 118.6h.2c1.2.4 1.4 1.4 1.5 2.5-1-.6-1.3-1.6-1.7-2.5z" fill="#0d0f13"/>
  <path d="M173.7 122.1c1.3.2 1.6 1.1 1.6 2.2-.8-.5-1.3-1.3-1.6-2.2z" fill="#141619"/>
  <path d="M168.1 124.1c-.1-.2-.3-.4-.4-.5 0-.8.1-1.6.4-2.3.1.4 0 .9.4 1.3-.2.4.1 1.1-.4 1.5z" fill="#181919"/>
  <path d="M104.8 54.8c.1-.1.2-.2.3-.2.4-.4 1.6-.2 1.1-1.2-.4-.8-1-.1-1.5.1-2.5.9-4.9 1.5-7.4.3-2.2-7.7.8-14.3 4.4-20.7 1.3-2.4 2.9-4.6 4.3-6.9-.2-.2-.2-.3.2-.4 2.7-2.2 5.5-4.4 7.3-7.5 2.1-3.6 3-7.3.5-11.2 8.3-1.8 16.6-1.3 24.9-.4.2 0 .5.2.7.3-2.9 3.5-1.9 7-.2 10.5.9 1.8 2.3 3.2 3.5 4.7 1.5 1.6 3.4 2.8 4.5 4.8 3.3 5.5 6.5 11.2 8.9 17.2.8 2.1 1.4 4.3 1.8 6.5.1 1 .3 2.1-.4 3.1-3.1 1.5-6 .4-8.8-.8-.7-.3-1.6-1.1-1.4.6 6.2 9.5 11.2 19.6 14.5 30.5 4 13.4 2.9 26.3-5.2 38.1-4.7 6.8-11.5 10.8-19.5 12.6-6.1 1.4-12.1 1.5-18.3 1-4.2-.4-8.4-.9-12.5-2.1-6.8-2-12.9-5.2-16.5-11.8-1.4-2.5-1.6-5.3-1.8-8.1-.6-9 .8-17.8 3.3-26.4 3.2-11.3 7.7-22.2 13.3-32.6z" fill="#fbfcfe"/>
  <path class="st47" d="M178.4 74.9c1.4 5 2.5 10 3.6 15.1.8 6.5 1.6 13 1.8 19.5.2 7.2-.2 14.3-1 21.4-1.2-3.2-1.5-6.7-2.2-10-2.4-10.2-5-20.4-7.9-30.5-2.6-9.1-5.1-18.2-8.5-27-.2-.6-.5-1.2-.8-1.8-.9-1.7-1.6-1.8-3.2-.6-1 1.2.1 2.4 0 3.6 0 .8.2 1.5.4 2.3-2.1-3.7-3.9-7.6-6.4-11.1 5.1-.2 7-1.7 10.9-8.7 1.7 1.8 2.7 3.9 3.9 5.8 3.9 7 6.9 14.4 9.4 22zM72.2 91.5c.8-1.8.7-3.7.7-5.6.5-.1.5-.5.6-.9 1.1-4.2 2.3-8.4 3.4-12.6 2.1-4.9 3.8-10 6.3-14.8.2-.3.1-.8.2-1.2 1.4-1.2 1.9-2.9 2.8-4.3 1.3-1.5 1.9-3.5 3.5-4.8 1.8 4.4 4.7 7.5 9.6 8.3-1.6 4.8-3.3 9.5-5.4 14.1-.2.3-.4.7-.6 1 .5-2.7 1-5.3 1.4-8 .1-.6.4-1.2-.2-1.6-.8-.8-.6-2.7-2.1-2.6-2 .1-3.3 1.6-4.3 3.2-2.5 3.8-4.2 8-5.5 12.3-2.6 8.2-4.6 16.5-6.2 25-1.6 8.7-3.4 17.5-4.3 26.3-.1 1-.3 2-.4 2.9-.1.5-.4.4-.7.3-.7-7.4-.8-14.8-.4-22.2.3-5 .8-9.9 1.6-14.8z"/>
  <path class="st3" d="M157.8 53.8c.3-6.2-2.6-11.5-5.3-16.8-1.7-3.4-3.7-6.7-5.6-10 .7-.3 1.3.2 1.9.4 2.6.8 4.2-.1 4.9-2.7.1-.5.3-.9.5-1.4.4-1.1.8-2.2.5-3.4 0-.5 0-1 .6-.4.3.3.3.8.5 1.2.4 2.1.7 4.2 2.3 5.8.5.6 1.1 1.2 1.6 1.8 1.4 2.4 2.8 4.7 3.9 7.2 2 5.4 1.3 10.5-2 15.2-.9 1.3-2.1 2.6-3.8 3.1z"/>
  <path d="M145 23.4c1.1.7 2.3 1.3 3.6 1.6 1.6-.1 3.2-.4 4.7-.2.1 1.6-1.1 2.8-2.8 2.9-1.8.1-5.3-2.4-5.9-4.1 0 0 0-.1.1-.2h.3z" fill="#a0562c"/>
  <path d="M145 23.4c.8 1.9 3.1 3.7 5 3.9 1.4.1 2.4-.6 3.1-1.6.1-.2.2-.5.2-.7.1-.3.3-.5.7-.4-.2 2.4-2.3 4-4.7 3.4-.9-.2-1.7-.7-2.5-1-1.3-1.6-3.1-2.7-4-4.7.9.3 1.7.5 2.2 1.1z" fill="#3e2819"/>
  <path d="M142.6 7.2c.7 0 1.2.3 1.1 1-.1.9-.7 1.5-1.6 1.7-.7.1-1.1-.3-1.1-1 0-1.1.7-1.5 1.6-1.7z" fill="#cdd6db"/>
  <path d="M154.1 24.6c-.2.1-.5.3-.7.4-1.6.4-3.2.9-4.8.1.6-.9 1.5-.9 2.5-.8 1.1.7 1.6-.4 2.3-.8.4-.2.9-1.2 1.3 0-.2.4-.4.7-.6 1.1z" fill="#301e11"/>
  <path d="M154.7 23.5c-1.2-.2-1.8 1.2-2.9 1.3-.4 0-1.2.6-.7-.5 2.4-.6 3.3-2.2 3.6-4.5.5 1.2.3 2.4 0 3.7z" fill="#824725"/>
  <path d="M106.2 25.8c0 .1-.1.3-.2.4-.9.5-1.7 1-2.6 1.4-3.2 1.5-5.3.5-6.2-3 .8-.1.9.7 1.2 1.1 1.3 2.2 4.4 2.2 6 0 .6-.7 1.2 0 1.8.1z" fill="#4b2c18"/>
  <path d="M108.4 9.7c-.3.9-.8 1.5-1.8 1.5-.6 0-1.1-.3-1-1 .2-1 .8-1.7 1.9-1.7.6 0 .9.5.9 1.2z" fill="#d8e0e6"/>
  <path d="M100.1 24.6l.8-.8c1.1.5 2.2.8 3.6 1-1.8 1.4-3.1 0-4.4-.2z" fill="#703e20"/>
  <path class="st0" d="M134.8 34.5c-.7 1.4.6 2.4.7 3.6 0 .6.8 1.3.1 1.8-.6.3-1.2-.4-1.7-.8-1.3-1.1-2.6-2.2-4-3.2-1.3-.9-2.7-1.5-4 .1-.4.5-1.1.8-1.6.5-2-1.5-3.3-.2-4.6 1-.2.2-.4.3-.7.5-.4-1.8 1-2.9 1-4.4 1.8-4.1 8.2-5.5 11.9-2.6 1.1.9 2.6 1.8 2.9 3.5z"/>
  <path d="M134.8 34.5c-.8-1.3-2-2.2-3.2-3.2-2.9-2.2-5.8-1.8-8.7-.1-1.1.7-2.1 1.3-3 2.3-1.7 1.4-3 3.2-4.3 5-.7 0-.7-.4-.5-.9 1.5-3.8 3.6-7.3 7.4-9.2 3.8-2 7.5-1.3 10.8 1.2 2.8 2.1 4.4 5.1 5.4 8.4.1.5.5 1.1-.4 1.2-1.2-1.5-2.1-3.3-3.5-4.7z" fill="#06090a"/>
  <path d="M115.1 37.7c.1.3 0 .8.5.9-.2 1-.8 1.7-1.6 2.6.1-1.4.4-2.5 1.1-3.5z" fill="#77787a"/>
  <path d="M119.8 22.9c1.3-.9 2.1-.9 3.1-.4-1 .9-1.8.4-3.1.4z" fill="#8d8e90"/>
  <path d="M129.5 23.2c1.2-1 2-1.5 3.3-1.2-.9.8-1.8 1-3.3 1.2z" fill="#67686a"/>
  <path d="M138.3 39.3c.6-.3.2-.8.4-1.2.6.8.7 1.7.8 2.8-.9-.3-1-1-1.2-1.6z" fill="#57585a"/>
  <g>
    <path class="st61" d="M111.7 115.5h2.4v9.8h-2.4v-4.1h-3.8v4.1h-2.4v-9.8h2.4v3.7h3.8v-3.7zm8.9 0l3 7.2-1.8 2-.5-1.3h-3.8l-.7 1.9h-2.6l4.1-9.8h2.3zm.1 6l-1.2-3.4-1.2 3.4h2.4zm5.5-2.3c.1-.4.3-.7.6-.9.2-.3.5-.5.9-.6.2-.1.4-.1.5-.2l1.8-2.1c-.4-.1-.9-.1-1.3-.1-.7 0-1.4.1-2.1.4-.6.2-1.2.6-1.7 1s-.9 1-1.1 1.6c-.3.6-.4 1.3-.4 2.1 0 .7.1 1.4.4 2l2.2-2.5c.1-.2.1-.4.2-.7zM122.5 125.9l1.8-2 1.1 2.6h-2.6l-.3-.6zm6.9-7.2c.4 0 .7.1 1.1.2.4.1.6.4.9.7l1.6-1.6c-.4-.5-1-.8-1.6-1.1-.2-.1-.5-.2-.7-.2l-1.8 2.1c.1-.1.3-.1.5-.1zm1.2 5.7c-.3.2-.8.3-1.2.3-.4 0-.8-.1-1.1-.2-.3-.1-.6-.4-.9-.6l-.6-.9c-.1-.4-.2-.8-.2-1.2v-.5l-2.2 2.5v.1c.3.6.6 1.2 1.1 1.6.5.5 1 .8 1.7 1.1.6.2 1.3.4 2.1.4s1.6-.1 2.2-.4c.6-.3 1.2-.7 1.6-1.2l-1.6-1.5c-.2.1-.5.3-.9.5zm7.3-3.1l4.2-4.5h-3l-3.5 4v-4h-2.3v9.8h2.3v-4.5l3.6 4.5h3.1l-4.4-5.3z"/>
    <path transform="rotate(-48.718 126.521 120.398)" class="st61" d="M116.1 120.3H137v.1h-20.9z"/>
    <path class="st61" d="M142 120.1v-.2l1.8-2.1c.3-.3.5-.6.7-.9.2-.3.2-.5.2-.8 0-.2 0-.3-.1-.5-.1-.1-.1-.3-.2-.4-.1-.1-.2-.2-.4-.2-.1-.1-.3-.1-.5-.1-.3 0-.5.1-.8.2-.2.2-.4.4-.5.7l-.2-.1c.1-.3.3-.6.5-.7.2-.2.5-.3.9-.3.2 0 .4 0 .5.1.2.1.3.2.4.3.1.1.2.3.3.4.1.2.1.3.1.5s0 .3-.1.5c0 .1-.1.3-.2.4-.1.1-.2.3-.3.5-.1.2-.3.3-.4.5l-1.7 2h2.8v.2H142zM147.8 118.7v1.4h-.2v-1.4h-2.4v-.2l2.4-3.7h.3v3.7h.9v.1h-1zm-.2-3.7l-2.3 3.5h2.3V115z"/>
    <path class="st61" d="M141.9 120.1v-.3l1.8-2.2c.3-.3.5-.6.7-.9.2-.2.2-.5.2-.8 0-.2 0-.3-.1-.5-.1-.1-.1-.3-.2-.3-.1-.1-.2-.2-.4-.2-.1-.1-.3-.1-.4-.1-.3 0-.5.1-.7.2-.2.1-.3.4-.4.6v.1l-.3-.1v-.1c.1-.3.3-.6.5-.8.3-.2.6-.3.9-.3.2 0 .4 0 .6.1.2.1.3.2.4.3.1.1.2.3.3.4.1.2.1.3.1.5s0 .3-.1.5c0 .1-.1.3-.2.4-.1.1-.2.3-.3.5-.1.2-.3.3-.4.5l-1.6 1.9h2.7v.3h-3.1zM147.5 120.1v-1.4h-2.4v-.3l2.4-3.7h.4v3.7h.9v.3h-.9v1.4h-.4zm0-1.6v-3.3l-2.1 3.3h2.1z"/>
    <path class="st61" d="M142 120.1v-.2l1.8-2.1c.3-.3.5-.6.7-.9.2-.3.2-.5.2-.8 0-.2 0-.3-.1-.5-.1-.1-.1-.3-.2-.4-.1-.1-.2-.2-.4-.2-.1-.1-.3-.1-.5-.1-.3 0-.5.1-.8.2-.2.2-.4.4-.5.7l-.2-.1c.1-.3.3-.6.5-.7.2-.2.5-.3.9-.3.2 0 .4 0 .5.1.2.1.3.2.4.3.1.1.2.3.3.4.1.2.1.3.1.5s0 .3-.1.5c0 .1-.1.3-.2.4-.1.1-.2.3-.3.5-.1.2-.3.3-.4.5l-1.7 2h2.8v.2H142zM147.8 118.7v1.4h-.2v-1.4h-2.4v-.2l2.4-3.7h.3v3.7h.9v.1h-1zm-.2-3.7l-2.3 3.5h2.3V115z"/>
  </g>
  <g>
    <path class="st62" d="M32 125.8l.5-2.1h7l-.5 2.1h-2.4l-3.2 12.4h-2.3l3.2-12.4H32zM42.2 125.8l-1.1 4h3.1l-.5 2.1h-3.1l-1.1 4.2h3.9l-.5 2.1h-6.2l3.8-14.5h6.2l-.5 2.1h-4zM53.1 123.8l-1.6 14.5h-2.2l.3-2.6h-2.8l-1.1 2.6h-2.1l6-14.5h3.5zm-2.4 2.5l-3 7.3h2.2l.8-7.3zM59.7 123.8l-1 10.2 4.2-10.2H66l-3.8 14.5h-2.1l2.7-10.4-4.3 10.4h-2.1l1-10.2-2.7 10.2h-2l3.8-14.5h3.2z"/>
  </g>
  <g>
    <path d="M26.4 144.4c-1.1 4-3.6 6-7.6 6h-7.5l-2 7.6H0l4.5-16.9h7.8l-6.6-4.6h16.7c3.2 0 4.7 1.2 4.7 3.7 0 .7-.1 1.4-.3 2.3l-.4 1.9zm-8.9-1c.1-.3.1-.5.1-.8 0-1.1-.8-1.6-2.5-1.6h-1.3l-1.3 4.7h1.3c2 .1 3.2-.7 3.7-2.3zM48.8 150.2c-1.4 5.3-5.9 7.9-13.4 7.9-6.3 0-9.5-1.9-9.5-5.7 0-.7.1-1.4.3-2.3l.4-1.4c1.4-5.3 5.9-7.9 13.4-7.9 6.3 0 9.5 1.9 9.5 5.6 0 .7-.1 1.5-.3 2.3l-.4 1.5zm-9.7 1.8l1.3-4.9c.1-.4.2-.8.2-1.1 0-1-.5-1.4-1.5-1.4-1.4 0-2.3.9-2.7 2.6l-1.3 4.9c-.1.4-.2.8-.2 1.1 0 1 .5 1.4 1.5 1.4 1.4-.1 2.3-.9 2.7-2.6zM66.2 144.8c-1.2-.2-2.4-.3-3.6-.3-2.1 0-3.4 1.2-4.1 3.6l-2.6 9.9h-7.7l4.5-16.9h7.7l-.2.6c1.3-.5 2.6-.7 4-.7s2.4 0 2.9.1l-.9 3.7zM85.2 156.6c-1.4 5.3-5.4 7.9-11.8 7.9s-9.6-1.6-9.6-4.7v-.6h9c-.1.2-.1.4-.1.5 0 .8.6 1.1 1.7 1.1 1.3 0 2.2-.8 2.7-2.5l.2-.9c-1.2.5-2.5.7-3.9.7-5.2 0-7.8-1.8-7.9-5.3 0-.8.1-1.7.4-2.6l.4-1.4c1.4-5.3 5.3-7.9 11.7-7.9 1.4 0 2.5.3 3.5.8l.2-.6h7.7l-4.2 15.5zm-6.4-4.6l1.3-4.9c.1-.4.2-.8.2-1.1 0-1-.5-1.4-1.5-1.4-1.4 0-2.3.9-2.7 2.6l-1.3 4.9c-.1.4-.2.8-.2 1.1 0 1 .5 1.4 1.5 1.4 1.3-.1 2.2-.9 2.7-2.6zM113.1 144.4c-1.1 4-3.6 6-7.6 6H98l-2 7.6h-9.2l4.5-16.9 1.2-4.6h16.7c3.2 0 4.7 1.2 4.7 3.7 0 .7-.1 1.4-.3 2.3l-.5 1.9zm-9-1c.1-.3.1-.5.1-.8 0-1.1-.8-1.6-2.5-1.6h-1.3l-1.3 4.7h1.3c2.1.1 3.3-.7 3.7-2.3zM135.5 150.2c-1.4 5.3-5.9 7.9-13.4 7.9-6.3 0-9.5-1.9-9.5-5.7 0-.7.1-1.4.3-2.3l.4-1.4c1.4-5.3 5.9-7.9 13.4-7.9 6.3 0 9.5 1.9 9.5 5.6 0 .7-.1 1.5-.3 2.3l-.4 1.5zm-9.7 1.8l1.3-4.9c.1-.4.2-.8.2-1.1 0-1-.5-1.4-1.5-1.4-1.4 0-2.3.9-2.7 2.6l-1.3 4.9c-.1.4-.2.8-.2 1.1 0 1 .5 1.4 1.5 1.4 1.4-.1 2.3-.9 2.7-2.6zM167.5 141.1l-9.2 16.9h-8.2l.3-6.3-3.1 6.3h-8.2l-.1-16.9h7.7l-1.3 9 4.4-9h6.8l-.4 9 3.5-9h7.8zM188.6 150.7h-13.3l-.3 1.3c-.1.4-.2.8-.2 1.1 0 1 .5 1.4 1.5 1.4 1.3 0 2.2-.7 2.6-2.1h9c-2 3.8-6.1 5.7-12.5 5.7-6.3 0-9.5-1.9-9.5-5.6 0-.7.1-1.5.3-2.3l.4-1.4c1.4-5.3 5.9-7.9 13.4-7.9 6.3 0 9.5 1.9 9.5 5.6 0 .7-.1 1.5-.4 2.4l-.5 1.8zm-8.4-3l.2-.6c.1-.4.2-.8.2-1.1 0-1-.5-1.5-1.5-1.5-1.4 0-2.3.9-2.7 2.6l-.2.6h4zM206.1 144.8c-1.2-.2-2.4-.3-3.6-.3-2.1 0-3.4 1.2-4.1 3.6l-2.6 9.9h-7.7l4.5-16.9h7.7l-.2.6c1.3-.5 2.6-.7 4-.7s2.4 0 2.9.1l-.9 3.7zM228.2 150.7H215l-.3 1.3c-.1.4-.2.8-.2 1.1 0 1 .5 1.4 1.5 1.4 1.3 0 2.2-.7 2.6-2.1h9c-2 3.8-6.1 5.7-12.5 5.7-6.3 0-9.5-1.9-9.5-5.6 0-.7.1-1.5.3-2.3l.4-1.4c1.4-5.3 5.9-7.9 13.4-7.9 6.3 0 9.5 1.9 9.5 5.6 0 .7-.1 1.5-.4 2.4l-.6 1.8zm-8.3-3l.2-.6c.1-.4.2-.8.2-1.1 0-1-.5-1.5-1.5-1.5-1.4 0-2.3.9-2.7 2.6l-.2.6h4zM248.5 158h-7.7l.2-.6c-1.2.5-2.5.8-3.9.8-5.3 0-7.9-1.8-7.9-5.4 0-.8.1-1.6.4-2.6l.4-1.4c1.4-5.3 5.3-7.9 11.7-7.9 1.4 0 2.6.2 3.5.7l1.4-5.2h7.7l-5.8 21.6zm-6.1-6l1.3-4.9c.1-.4.2-.8.2-1.1 0-1-.5-1.4-1.5-1.4-1.4 0-2.3.9-2.7 2.6l-1.3 4.9c-.1.4-.2.8-.2 1.1 0 1 .5 1.4 1.5 1.4 1.3-.1 2.2-.9 2.7-2.6z"/>
  </g>
  <g>
    <path d="M41.8 174.3c-.6 2.3-2.1 3.4-4.3 3.4h-4.3L32 182h-5.2l2.6-9.6h4.4l-3.7-2.6h9.5c1.8 0 2.7.7 2.7 2.1 0 .4-.1.8-.2 1.3l-.3 1.1zm-5.1-.5c0-.2.1-.3.1-.4 0-.6-.5-.9-1.4-.9h-.8l-.7 2.7h.8c1.1-.1 1.7-.5 2-1.4zM54.5 177.7c-.8 3-3.3 4.5-7.6 4.5-3.6 0-5.4-1.1-5.4-3.2 0-.4.1-.8.2-1.3l.2-.8c.8-3 3.3-4.5 7.6-4.5 3.6 0 5.4 1.1 5.4 3.2 0 .4-.1.8-.2 1.3l-.2.8zm-5.5 1l.7-2.8c.1-.2.1-.5.1-.6 0-.5-.3-.8-.9-.8-.8 0-1.3.5-1.5 1.5l-.7 2.8c-.1.2-.1.5-.1.6 0 .5.3.8.9.8.7-.1 1.3-.6 1.5-1.5zM72.7 172.5l-5.2 9.6h-4.6l.2-3.6-1.7 3.6h-4.6l-.1-9.6H61l-.8 5.1 2.5-5.1h3.9l-.2 5.1 2-5.1h4.3zM84.7 177.9h-7.5l-.2.7c-.1.2-.1.5-.1.6 0 .5.3.8.9.8.8 0 1.3-.4 1.5-1.2h5.1c-1.1 2.2-3.5 3.3-7.1 3.3-3.6 0-5.4-1.1-5.4-3.2 0-.4.1-.8.2-1.3l.2-.8c.8-3 3.3-4.5 7.6-4.5 3.6 0 5.4 1.1 5.4 3.2 0 .4-.1.9-.2 1.3l-.4 1.1zm-4.8-1.7l.1-.3c.1-.2.1-.4.1-.6 0-.6-.3-.8-.9-.8-.8 0-1.3.5-1.5 1.5l-.1.3h2.3zM94.7 174.6c-.7-.1-1.3-.2-2-.2-1.2 0-1.9.7-2.3 2.1l-1.5 5.6h-4.4l2.6-9.6h4.4l-.1.3c.7-.3 1.5-.4 2.3-.4h1.7l-.7 2.2zM107.2 177.9h-7.5l-.2.7c-.1.2-.1.5-.1.6 0 .5.3.8.9.8.8 0 1.3-.4 1.5-1.2h5.1c-1.1 2.2-3.5 3.3-7.1 3.3-3.6 0-5.4-1.1-5.4-3.2 0-.4.1-.8.2-1.3l.2-.8c.8-3 3.3-4.5 7.6-4.5 3.6 0 5.4 1.1 5.4 3.2 0 .4-.1.9-.2 1.3l-.4 1.1zm-4.7-1.7l.1-.3c.1-.2.1-.4.1-.6 0-.6-.3-.8-.9-.8-.8 0-1.3.5-1.5 1.5l-.1.3h2.3zM118.7 182.1h-4.4l.1-.4c-.7.3-1.4.4-2.2.4-3 0-4.5-1-4.5-3 0-.4.1-.9.2-1.5l.2-.8c.8-3 3-4.5 6.6-4.5.8 0 1.5.1 2 .4l.8-3h4.4l-3.2 12.4zm-3.4-3.5l.7-2.8c.1-.2.1-.5.1-.6 0-.5-.3-.8-.9-.8-.8 0-1.3.5-1.5 1.5l-.7 2.8c-.1.2-.1.5-.1.6 0 .5.3.8.9.8.7 0 1.2-.5 1.5-1.5zM138.3 177.7c-.8 3-3 4.5-6.7 4.5-.8 0-1.4-.1-2-.4l-.1.4h-4.4l3.3-12.3h4.4l-.8 3c.7-.3 1.4-.4 2.2-.4 3 0 4.5 1 4.5 3 0 .5-.1.9-.2 1.5l-.2.7zm-5.5.9l.7-2.8c.1-.2.1-.5.1-.6 0-.5-.3-.8-.9-.8-.8 0-1.3.5-1.5 1.5l-.7 2.8c-.1.2-.1.5-.1.6 0 .5.3.8.9.8.7 0 1.2-.5 1.5-1.5zM151.2 172.5l-7.8 12.8h-4.1l1.9-3.2-.8-9.6h4.1l.3 3.5 2.1-3.5h4.3zM169.9 174.3c-.6 2.3-2.1 3.4-4.3 3.4h-4.3l-1.2 4.3h-5.2l2.6-9.6.7-2.6h9.5c1.8 0 2.7.7 2.7 2.1 0 .4-.1.8-.2 1.3l-.3 1.1zm-5.1-.5c0-.2.1-.3.1-.4 0-.6-.5-.9-1.4-.9h-.8l-.7 2.7h.8c1.1-.1 1.8-.5 2-1.4zM182.6 177.7c-.8 3-3.3 4.5-7.6 4.5-3.6 0-5.4-1.1-5.4-3.2 0-.4.1-.8.2-1.3l.2-.8c.8-3 3.3-4.5 7.6-4.5 3.6 0 5.4 1.1 5.4 3.2 0 .4-.1.8-.2 1.3l-.2.8zm-5.5 1l.7-2.8c.1-.2.1-.5.1-.6 0-.5-.3-.8-.9-.8-.8 0-1.3.5-1.5 1.5l-.7 2.8c-.1.2-.1.5-.1.6 0 .5.3.8.9.8.8-.1 1.3-.6 1.5-1.5zM192.5 174.6c-.7-.1-1.3-.2-2-.2-1.2 0-1.9.7-2.3 2.1l-1.5 5.6h-4.4l2.6-9.6h4.4l-.1.3c.7-.3 1.5-.4 2.3-.4h1.7l-.7 2.2zM203.3 181.3c-.8 3-3 4.5-6.7 4.5-3.6 0-5.4-.9-5.5-2.7v-.3h5.1v.3c0 .4.3.6.9.6.8 0 1.3-.5 1.5-1.4l.1-.5c-.7.3-1.4.4-2.2.4-3 0-4.5-1-4.5-3 0-.5.1-.9.2-1.5l.2-.8c.8-3 3-4.5 6.7-4.5.8 0 1.4.1 2 .4l.1-.4h4.4l-2.3 8.9zm-3.6-2.6l.7-2.8c.1-.2.1-.5.1-.6 0-.5-.3-.8-.9-.8-.8 0-1.3.5-1.5 1.5l-.7 2.8c-.1.2-.1.5-.1.6 0 .5.3.8.9.8.7-.1 1.2-.6 1.5-1.5zM218.1 175.4h-4.9c0-.1.1-.2.1-.3 0-.4-.3-.7-1-.7-.9 0-1.4.3-1.4.8 0 .4.5.6 1.6.8 1.7.3 2.8.6 3.3.8.9.4 1.3 1 1.3 1.7 0 .2 0 .4-.1.6-.5 2-2.9 3-7 3-3.8 0-5.6-1-5.5-3.1h4.9c0 .1-.1.2-.1.3 0 .5.4.7 1.1.7 1 0 1.5-.3 1.5-.8 0-.4-.5-.6-1.6-.8-1.7-.3-2.8-.6-3.3-.8-.9-.4-1.3-1-1.3-1.7 0-.2 0-.4.1-.6.5-2 2.9-3 7-3 3.7.1 5.4 1.1 5.3 3.1zM221.4 170.3v.8h-1.5v4h-.9v-4h-1.5v-.8h3.9zm5.1 4.7l-.2-2.8v-1.3h-.1c-.1.4-.3 1-.4 1.4l-.8 2.7h-1l-.9-2.7c-.1-.4-.2-.9-.3-1.3h-.1v1.3l-.2 2.8h-.9l.3-4.8h1.4l.8 2.3c.1.4.2.7.3 1.2l.3-1.2.8-2.3h1.4l.4 4.8h-.8z"/>
  </g>
</svg>
